<svg width="55" height="55" viewBox="0 0 55 55" fill="none" xmlns="http://www.w3.org/2000/svg">
<rect width="55" height="55" rx="7.85714" fill="#14B8A6"/>
<path d="M21.2012 34.79C22.2362 34.4255 23.2371 33.9704 24.1923 33.4302" stroke="white" stroke-width="2" stroke-linecap="round" stroke-linejoin="round"/>
<path d="M13.3574 37.0958C13.3574 38.2258 13.8063 39.3097 14.6054 40.1087C15.4045 40.9077 16.4882 41.3567 17.6183 41.3567C18.7484 41.3567 19.8321 40.9077 20.6312 40.1087C21.4302 39.3097 21.8792 38.2258 21.8792 37.0958C21.8792 35.9658 21.4302 34.882 20.6312 34.083C19.8321 33.2839 18.7484 32.835 17.6183 32.835C16.4882 32.835 15.4045 33.2839 14.6054 34.083C13.8063 34.882 13.3574 35.9658 13.3574 37.0958Z" stroke="white" stroke-width="2" stroke-linecap="round" stroke-linejoin="round"/>
<path d="M17.6182 36.3789C17.8082 36.379 17.9905 36.4545 18.125 36.5889C18.2596 36.7234 18.335 36.9064 18.335 37.0967C18.3349 37.2868 18.2595 37.469 18.125 37.6035C17.9905 37.738 17.8083 37.8134 17.6182 37.8135C17.4279 37.8135 17.2449 37.7381 17.1104 37.6035C16.9759 37.469 16.9005 37.2868 16.9004 37.0967C16.9004 36.9064 16.9758 36.7234 17.1104 36.5889C17.2449 36.4543 17.4279 36.3789 17.6182 36.3789Z" stroke="white" stroke-linecap="round" stroke-linejoin="round"/>
<path d="M38.753 40.1614L38.232 41.257L32.0038 37.3018C31.4367 36.9409 31.0209 36.3854 30.8346 35.7395C30.6483 35.0935 30.7043 34.4019 30.9922 33.7945C31.2796 33.1869 31.7791 32.7052 32.3967 32.4401C33.0143 32.1749 33.7076 32.1443 34.3461 32.3543L41.3571 34.66L40.8361 35.7557" stroke="white" stroke-width="2" stroke-linecap="round" stroke-linejoin="round"/>
<path d="M28.5627 30.5089C31.7901 28.0668 37.0966 23.448 37.0966 19.4818C37.0966 12.8056 28.7186 10.9844 26.1401 17.0531C23.5617 10.9844 15.1836 12.8056 15.1836 19.4818C15.1836 25.1804 25.6934 31.9345 26.1401 32.2266C27.573 33.164 30.2282 34.2962 30.9159 33.9723" stroke="white" stroke-width="2" stroke-linecap="round" stroke-linejoin="round"/>
</svg>
