<svg width="55" height="55" viewBox="0 0 55 55" fill="none" xmlns="http://www.w3.org/2000/svg">
<rect width="55" height="55" rx="7.85714" fill="#14B8A6"/>
<mask id="mask0_521_4438" style="mask-type:luminance" maskUnits="userSpaceOnUse" x="13" y="13" width="29" height="29">
<path d="M41.3574 13.3569H13.3574V41.3569H41.3574V13.3569Z" fill="white"/>
</mask>
<g mask="url(#mask0_521_4438)">
<path d="M33.7743 41.3567C33.5118 41.3567 33.2645 41.24 33.0988 41.0382C30.1285 37.4308 30.1285 33.617 33.0988 30.0097C33.4313 29.6048 34.1173 29.6048 34.4498 30.0097C37.4202 33.617 37.4202 37.4308 34.4498 41.0382C34.2842 41.24 34.0368 41.3567 33.7743 41.3567ZM33.7743 32.0327C32.2367 34.373 32.2367 36.6725 33.7743 39.0128C35.312 36.6725 35.312 34.3742 33.7743 32.0327Z" fill="white"/>
<path d="M33.7423 41.3566C33.7154 41.3566 33.6863 41.3555 33.6595 41.3531C28.9135 40.904 26.4704 38.3186 26.1928 33.4501C26.1788 33.2005 26.2721 32.9566 26.4494 32.7805C26.6268 32.6031 26.8706 32.5133 27.1214 32.5273C29.1783 32.6556 30.8571 33.2203 32.1125 34.205C32.4928 34.5036 32.5593 35.0531 32.2606 35.4335C31.9631 35.8126 31.4101 35.8803 31.0321 35.5816C30.2668 34.9808 29.2623 34.5795 28.0419 34.3858C28.5144 37.656 30.3321 39.2811 33.8239 39.6113C34.3058 39.6568 34.6593 40.0838 34.6138 40.5645C34.5694 41.0171 34.1868 41.3566 33.7423 41.3566Z" fill="white"/>
<path d="M33.8059 41.3566C33.3602 41.3566 32.9788 41.0171 32.9356 40.5645C32.8901 40.0826 33.2436 39.6568 33.7254 39.6113C37.2173 39.2811 39.0349 37.656 39.5074 34.3858C38.2859 34.5806 37.2826 34.9808 36.5172 35.5816C36.1369 35.8803 35.5851 35.8126 35.2888 35.4335C34.9901 35.0531 35.0566 34.5036 35.4369 34.205C36.6922 33.2191 38.3722 32.6545 40.4279 32.5273C40.6706 32.5133 40.9226 32.6031 41.0999 32.7805C41.2761 32.9566 41.3694 33.2005 41.3566 33.4501C41.0789 38.3186 38.6359 40.904 33.8899 41.3531C33.8619 41.3555 33.8339 41.3566 33.8059 41.3566Z" fill="white"/>
<path d="M23.4596 36.1303C23.2846 36.1303 23.1049 36.0778 22.9509 35.9669C19.3681 33.4014 13.3574 27.9823 13.3574 20.5203C13.3574 16.5699 16.5763 13.3569 20.5324 13.3569C22.8109 13.3569 24.8689 14.3451 26.1908 16.0076C27.5126 14.3451 29.5706 13.3569 31.8491 13.3569C35.8053 13.3569 39.0241 16.5699 39.0241 20.5203C39.0241 23.0706 38.3148 25.6023 36.9124 28.0488C36.6733 28.4676 36.1413 28.6134 35.7189 28.3731C35.3001 28.1328 35.1554 27.5984 35.3958 27.1796C36.6418 25.0014 37.2741 22.7614 37.2741 20.5203C37.2741 17.5348 34.8404 15.1069 31.8491 15.1069C29.7234 15.1069 27.8568 16.2246 26.9771 18.0236C26.6831 18.6244 25.6984 18.6244 25.4044 18.0236C24.5248 16.2246 22.6593 15.1069 20.5324 15.1069C17.5411 15.1069 15.1074 17.5359 15.1074 20.5203C15.1074 27.1994 20.6608 32.1729 23.9706 34.5436C24.3638 34.8248 24.4536 35.3719 24.1724 35.7639C24.0009 36.0031 23.7338 36.1303 23.4596 36.1303Z" fill="white"/>
</g>
</svg>
