<svg width="55" height="55" viewBox="0 0 55 55" fill="none" xmlns="http://www.w3.org/2000/svg">
<rect width="55" height="55" rx="7.85714" fill="#14B8A6"/>
<path d="M23.375 31.113H31.625M27.5 27.0155V35.2106M36.6612 23.5186C37.8478 24.8938 38.5 26.6452 38.5 28.4563V38.6252C38.5 40.1339 37.2688 41.3569 35.75 41.3569H19.25C17.7312 41.3569 16.5 40.1339 16.5 38.6252V28.4563C16.5 26.6452 17.1522 24.8938 18.3388 23.5186C19.7899 21.837 21.9083 20.8691 24.138 20.8691H30.862C33.0917 20.8691 35.2102 21.837 36.6612 23.5186ZM22.6875 17.4545H32.3125C33.4516 17.4545 34.375 16.5372 34.375 15.4057C34.375 14.2742 33.4516 13.3569 32.3125 13.3569H22.6875C21.5484 13.3569 20.625 14.2742 20.625 15.4057C20.625 16.5372 21.5484 17.4545 22.6875 17.4545Z" stroke="white" stroke-width="2" stroke-linecap="round" stroke-linejoin="round"/>
</svg>
