<svg width="55" height="55" viewBox="0 0 55 55" fill="none" xmlns="http://www.w3.org/2000/svg">
<rect width="55" height="55" rx="7.85714" fill="#14B8A6"/>
<path d="M13.3574 30.301H22.7239C24.1649 30.301 25.6059 32.419 27.0469 32.419C28.2924 32.419 30.6144 31.3641 31.6868 33.3573C32.0257 33.9872 31.5731 34.7069 30.9018 34.9797C29.3468 35.6114 27.6148 36.4695 27.0469 36.655L22.7239 35.243M32.0904 33.831L38.6845 31.2465C39.0848 31.0896 39.5201 31.0385 39.9469 31.0982C41.4554 31.3093 41.8815 33.2455 40.596 34.047L29.5811 40.9155C28.8858 41.3489 28.0345 41.4701 27.2421 41.2483L13.3574 37.361M27.0469 27.477C24.273 26.5201 19.1214 22.4066 19.1214 17.8818C19.1214 15.3828 21.073 13.3569 23.4805 13.3569C24.9547 13.3569 26.2581 14.1166 27.0469 15.2795C27.8357 14.1166 29.1391 13.3569 30.6134 13.3569C33.0209 13.3569 34.9724 15.3828 34.9724 17.8818C34.9724 22.4066 29.8209 26.5201 27.0469 27.477Z" stroke="white" stroke-width="2" stroke-linecap="round" stroke-linejoin="round"/>
</svg>
