<svg width="55" height="55" viewBox="0 0 55 55" fill="none" xmlns="http://www.w3.org/2000/svg">
<rect width="55" height="55" rx="7.85714" fill="#14B8A6"/>
<path d="M28 35.4407V18.0892M28 35.4407C28 31.956 30.8654 29.1311 34.4 29.1311M28 35.4407C28 31.956 25.1345 29.1311 21.6 29.1311M28 35.4407C28 37.0181 28.2182 37.6021 28.8 38.5955C30.3464 41.2361 33.7713 42.1409 36.4497 40.6164C38.9058 39.2183 39.8814 36.2632 38.8341 33.7461C41.7782 33.179 44 30.6222 44 27.5536C44 24.0689 41.1346 21.244 37.6 21.244V18.0892C37.6 15.4756 35.451 13.3569 32.8 13.3569C30.1491 13.3569 28 15.4756 28 18.0892M28 35.4407C28 37.0181 27.7817 37.6021 27.2 38.5955C25.6536 41.2361 22.2287 42.1409 19.5502 40.6164C17.0942 39.2183 16.1186 36.2632 17.1658 33.7461C14.2218 33.179 12 30.6222 12 27.5536C12 24.0689 14.8654 21.244 18.4 21.244L18.4 18.0892C18.4 15.4756 20.549 13.3569 23.2 13.3569C25.851 13.3569 28 15.4756 28 18.0892" stroke="white" stroke-width="2" stroke-linecap="round" stroke-linejoin="round"/>
</svg>
