<svg width="55" height="55" viewBox="0 0 55 55" fill="none" xmlns="http://www.w3.org/2000/svg">
<rect width="55" height="55" rx="7.85714" fill="#14B8A6"/>
<path d="M39.1641 14.9034C34.9926 12.3446 31.3517 13.3758 29.1646 15.0183C28.2677 15.6918 27.8194 16.0285 27.5556 16.0285C27.2917 16.0285 26.8434 15.6918 25.9465 15.0183C23.7594 13.3758 20.1186 12.3446 15.9471 14.9034C10.4725 18.2615 9.23378 29.34 21.8615 38.6867C24.2667 40.4669 25.4694 41.3569 27.5556 41.3569C29.6418 41.3569 30.8445 40.4669 33.2497 38.6867C45.8774 29.34 44.6386 18.2615 39.1641 14.9034Z" stroke="white" stroke-width="2" stroke-linecap="round"/>
<path d="M27.5553 22.6919V32.0253M22.8887 27.3586H32.222" stroke="white" stroke-width="2" stroke-linecap="round"/>
</svg>
