<svg width="45" height="45" viewBox="0 0 45 45" fill="none" xmlns="http://www.w3.org/2000/svg">
<rect width="45" height="45" rx="7.85714" fill="#14B8A6"/>
<path d="M13.4833 33.9225V29.8403C13.4833 28.3782 13.1004 27.6182 12.3478 26.3474C11.4456 24.8243 10.9277 23.0466 10.9277 21.1481C10.9277 15.5039 15.5044 10.9285 21.15 10.9285C26.7955 10.9285 31.3722 15.5039 31.3722 21.1481C31.3722 21.8147 31.3722 22.1481 31.4 22.335C31.4665 22.7817 31.675 23.1661 31.88 23.5639L33.9277 27.5353L32.3184 28.3397C31.852 28.5728 31.6189 28.6894 31.4564 28.9046C31.2939 29.1196 31.2482 29.3625 31.1567 29.8481L31.1477 29.8955C30.9382 31.0082 30.7069 32.2364 30.0556 33.0112C29.8256 33.2848 29.5408 33.5071 29.2195 33.6638C28.6891 33.9225 28.0371 33.9225 26.733 33.9225C26.1296 33.9225 25.5245 33.9364 24.9212 33.9218C23.4911 33.8869 22.4277 32.6846 22.4277 31.2885" stroke="white" stroke-width="2" stroke-linecap="round" stroke-linejoin="round"/>
<path d="M21.2785 17.0885C22.0529 16.1414 23.3274 15.7881 24.4657 16.007C25.9061 16.284 27.1723 17.4721 27.1723 19.5165C27.172 21.5451 25.6694 23.3237 24.3051 24.5365C23.6074 25.1567 22.9114 25.6588 22.3915 26.0055C22.131 26.1791 21.9137 26.315 21.7602 26.4076C21.6837 26.4537 21.6227 26.4888 21.5806 26.5131C21.5596 26.5252 21.5426 26.5348 21.5312 26.5412L21.5189 26.549L21.5144 26.5513H21.5132C21.5125 26.5518 21.5024 26.5566 21.4874 26.5614C21.3543 26.626 21.2015 26.6262 21.0685 26.5614H21.0652C21.0584 26.5589 21.0527 26.5563 21.0494 26.5547L21.0471 26.5524H21.0438L21.0426 26.5513L21.0393 26.549L21.0259 26.5412C21.0144 26.5348 20.9975 26.5252 20.9764 26.5131C20.9343 26.4888 20.8734 26.4537 20.7968 26.4076C20.6434 26.315 20.426 26.1791 20.1655 26.0055C19.6456 25.6588 18.9496 25.1567 18.2519 24.5365C16.8876 23.3237 15.385 21.5451 15.3848 19.5165C15.3848 17.4721 16.6509 16.284 18.0913 16.007C19.2297 15.7881 20.5041 16.1414 21.2785 17.0885ZM20.8338 18.2003C20.4193 17.2108 19.3208 16.7523 18.2732 16.9537C17.7668 17.0511 17.2874 17.3032 16.9346 17.7208C16.5825 18.1376 16.3483 18.7286 16.3483 19.5165C16.3484 20.3028 16.647 21.0787 17.1176 21.8109C17.5882 22.5429 18.2267 23.2231 18.8932 23.8156C19.5484 24.3979 20.2054 24.8738 20.7002 25.2036C20.9375 25.3619 21.1368 25.4852 21.2785 25.5708C21.4202 25.4852 21.6195 25.3619 21.8568 25.2036C22.3516 24.8738 23.0086 24.3979 23.6638 23.8156C24.3303 23.2231 24.9689 22.5429 25.4394 21.8109C25.91 21.0787 26.2086 20.3028 26.2087 19.5165C26.2087 18.7286 25.9745 18.1376 25.6224 17.7208C25.2696 17.3032 24.7903 17.0511 24.2838 16.9537C23.2362 16.7523 22.1377 17.2108 21.7232 18.2003C21.6482 18.3795 21.4727 18.4957 21.2785 18.4957C21.0843 18.4957 20.9088 18.3795 20.8338 18.2003Z" fill="white" stroke="white" stroke-linecap="round" stroke-linejoin="round"/>
</svg>
