<svg width="45" height="45" viewBox="0 0 45 45" fill="none" xmlns="http://www.w3.org/2000/svg">
<rect width="45" height="45" rx="7.85714" fill="#14B8A6"/>
<path d="M11.3318 23.824C10.9259 21.1821 10.7229 19.8612 11.2223 18.6903C11.7218 17.5193 12.8299 16.7181 15.046 15.1157L16.7019 13.9185C19.4588 11.9251 20.8372 10.9285 22.4277 10.9285C24.0183 10.9285 25.3967 11.9251 28.1536 13.9185L29.8095 15.1157C32.0256 16.7181 33.1337 17.5193 33.6331 18.6903C34.1325 19.8612 33.9296 21.1821 33.5236 23.824L33.1775 26.0767C32.6019 29.8217 32.3142 31.6942 30.9711 32.8114C29.628 33.9285 27.6645 33.9285 23.7374 33.9285H21.1181C17.191 33.9285 15.2275 33.9285 13.8844 32.8114C12.5413 31.6942 12.2535 29.8217 11.678 26.0767L11.3318 23.824Z" stroke="white" stroke-width="2" stroke-linejoin="round"/>
<path d="M22.4285 20.1284V27.0284M18.9785 23.5784H25.8785" stroke="white" stroke-width="2" stroke-linecap="round"/>
</svg>
