<svg width="45" height="45" viewBox="0 0 45 45" fill="none" xmlns="http://www.w3.org/2000/svg">
<rect width="45" height="45" rx="7.85714" fill="#14B8A6"/>
<path d="M13.4833 33.9225V29.8403C13.4833 28.3782 13.1004 27.6182 12.3478 26.3474C11.4456 24.8243 10.9277 23.0466 10.9277 21.1481C10.9277 15.5039 15.5044 10.9285 21.15 10.9285C26.7955 10.9285 31.3722 15.5039 31.3722 21.1481C31.3722 21.8147 31.3722 22.1481 31.4 22.335C31.4665 22.7817 31.675 23.1661 31.88 23.5639L33.9277 27.5353L32.3184 28.3397C31.852 28.5728 31.6189 28.6894 31.4564 28.9046C31.2939 29.1196 31.2482 29.3625 31.1567 29.8481L31.1477 29.8955C30.9382 31.0082 30.7069 32.2364 30.0556 33.0112C29.8256 33.2848 29.5408 33.5071 29.2195 33.6638C28.6891 33.9225 28.0371 33.9225 26.733 33.9225C26.1296 33.9225 25.5245 33.9364 24.9212 33.9218C23.4911 33.8869 22.4277 32.6846 22.4277 31.2885" stroke="white" stroke-width="2" stroke-linecap="round" stroke-linejoin="round"/>
<path d="M25.1731 20.7396C24.6829 20.7396 24.2358 20.5541 23.8971 20.2489M25.1731 20.7396C25.1731 22.0574 24.4097 23.3091 22.94 23.3091C21.4703 23.3091 20.7069 24.5606 20.7069 25.8784M25.1731 20.7396C27.6448 20.7396 27.6448 16.8856 25.1731 16.8856C24.9486 16.8856 24.733 16.9246 24.5328 16.9961C24.6536 14.1233 20.5121 13.3434 19.5741 16.0346M17.8066 22.4903C17.4602 22.9855 16.8879 23.3091 16.2405 23.3091C13.9319 23.3091 13.6895 19.8159 15.9562 19.4761C14.6056 17.1765 17.4445 14.5973 19.5741 16.0346C20.2572 16.4957 20.7069 17.2801 20.7069 18.1703" stroke="white" stroke-width="2" stroke-linecap="round" stroke-linejoin="round"/>
</svg>
