<svg width="45" height="45" viewBox="0 0 45 45" fill="none" xmlns="http://www.w3.org/2000/svg">
<rect width="45" height="45" rx="7.85714" fill="#14B8A6"/>
<path d="M22.4297 33.9285C28.781 33.9285 33.9297 28.7797 33.9297 22.4285C33.9297 16.0772 28.781 10.9285 22.4297 10.9285C16.0784 10.9285 10.9297 16.0772 10.9297 22.4285C10.9297 28.7797 16.0784 33.9285 22.4297 33.9285Z" stroke="white" stroke-width="2" stroke-linecap="round" stroke-linejoin="round"/>
<path d="M25.3349 25.9723C29.9362 22.4441 29.2079 18.5337 27.0775 17.275C25.407 16.288 23.9491 16.6857 23.0732 17.3193C22.7141 17.579 22.5345 17.7089 22.4289 17.7089C22.3233 17.7089 22.1437 17.579 21.7846 17.3193C20.9088 16.6857 19.4508 16.288 17.7804 17.275C15.6576 18.5291 15.1252 22.5594 19.6841 26.087C20.5543 26.7604 21.4757 27.366 22.4289 27.9154C24.4745 29.0944 27.5083 30.4785 30.4789 30.4785M14.3789 30.4785C16.1599 30.4785 17.9637 29.981 19.5635 29.3285" stroke="white" stroke-width="2" stroke-linecap="round"/>
</svg>
