<svg width="55" height="55" viewBox="0 0 55 55" fill="none" xmlns="http://www.w3.org/2000/svg">
<rect width="55" height="55" rx="7.85714" fill="#14B8A6"/>
<g clip-path="url(#clip0_666_747)">
<path d="M24.6667 38.6665H18.8333C16.9037 38.6665 15.3333 37.0961 15.3333 35.1665V28.1665C15.3333 26.2368 16.9037 24.6665 18.8333 24.6665H30.5C31.116 24.6665 31.7203 24.8286 32.2488 25.1331C32.8042 25.4551 33.5193 25.265 33.8425 24.7085C34.1657 24.1508 33.9743 23.4368 33.4178 23.1148C33.2288 23.0051 33.0328 22.913 32.8333 22.8266V21.1676C32.8333 16.6643 29.1688 13.001 24.6667 13.001C20.1645 13.001 16.5 16.6631 16.5 21.1665V22.8278C14.4432 23.7308 13 25.7806 13 28.1665V35.1665C13 38.383 15.6168 40.9998 18.8333 40.9998H24.6667C25.3118 40.9998 25.8333 40.4771 25.8333 39.8331C25.8333 39.1891 25.3118 38.6665 24.6667 38.6665ZM18.8333 21.1665C18.8333 17.95 21.4502 15.3331 24.6667 15.3331C27.8832 15.3331 30.5 17.95 30.5 21.1665V22.3331H18.8333V21.1665ZM34 26.9998C30.1395 26.9998 27 30.1393 27 33.9998C27 37.8603 30.1395 40.9998 34 40.9998C37.8605 40.9998 41 37.8603 41 33.9998C41 30.1393 37.8605 26.9998 34 26.9998ZM37.2387 37.3481C36.7195 36.0706 35.4723 35.1665 34.0093 35.1665H33.9907C32.5277 35.1665 31.2782 36.0683 30.7602 37.3458C29.884 36.4965 29.3345 35.3135 29.3345 33.9998C29.3345 31.4261 31.4275 29.3331 34.0012 29.3331C36.5748 29.3331 38.6678 31.4261 38.6678 33.9998C38.6678 35.3146 38.1172 36.4988 37.2398 37.3481H37.2387ZM35.75 32.2498C35.75 33.2158 34.966 33.9998 34 33.9998C33.034 33.9998 32.25 33.2158 32.25 32.2498C32.25 31.2838 33.034 30.4998 34 30.4998C34.966 30.4998 35.75 31.2838 35.75 32.2498ZM25.8333 30.4998V32.8331C25.8333 33.4771 25.3118 33.9998 24.6667 33.9998C24.0215 33.9998 23.5 33.4771 23.5 32.8331V30.4998C23.5 29.8558 24.0215 29.3331 24.6667 29.3331C25.3118 29.3331 25.8333 29.8558 25.8333 30.4998Z" fill="white"/>
</g>
<defs>
<clipPath id="clip0_666_747">
<rect width="28" height="28" fill="white" transform="translate(13 13)"/>
</clipPath>
</defs>
</svg>
