<svg width="55" height="55" viewBox="0 0 55 55" fill="none" xmlns="http://www.w3.org/2000/svg">
<rect width="55" height="55" rx="7.85714" fill="#14B8A6"/>
<path d="M24.4021 28.0003C27.9918 28.0003 30.9018 25.0901 30.9018 21.5002C30.9018 17.9102 27.9918 15 24.4021 15C20.8124 15 17.9023 17.9102 17.9023 21.5002C17.9023 25.0901 20.8124 28.0003 24.4021 28.0003Z" stroke="white" stroke-width="1.85712" stroke-linecap="round" stroke-linejoin="round"/>
<path d="M14 38.4008C14.0002 36.764 14.3866 35.1503 15.1279 33.6911C15.8692 32.2318 16.9445 30.9681 18.2662 30.0028C19.5879 29.0375 21.1188 28.3977 22.7344 28.1357C24.3499 27.8736 26.0046 27.9965 27.5636 28.4945" stroke="white" stroke-width="1.85712" stroke-linecap="round" stroke-linejoin="round"/>
<path d="M34.8002 38.4008C36.9541 38.4008 38.7001 36.6546 38.7001 34.5007C38.7001 32.3467 36.9541 30.6006 34.8002 30.6006C32.6464 30.6006 30.9004 32.3467 30.9004 34.5007C30.9004 36.6546 32.6464 38.4008 34.8002 38.4008Z" stroke="white" stroke-width="1.85712" stroke-linecap="round" stroke-linejoin="round"/>
<path d="M39.9992 39.7005L37.5293 37.2305" stroke="white" stroke-width="1.85712" stroke-linecap="round" stroke-linejoin="round"/>
</svg>
