<svg width="55" height="55" viewBox="0 0 55 55" fill="none" xmlns="http://www.w3.org/2000/svg">
<rect width="55" height="55" rx="7.85714" fill="#14B8A6"/>
<path d="M30.7146 17.2451V19.4901M30.7146 19.4901V21.7351M30.7146 19.4901H26.2246M26.2246 17.2451V19.4901M26.2246 19.4901V21.7351" stroke="white" stroke-width="2" stroke-linecap="round"/>
<path d="M18.3672 39.695V27.7749C18.3672 23.8415 18.3672 21.8748 19.6617 20.6528C20.4845 19.8762 21.6259 19.5931 23.4184 19.49M38.5722 39.695V27.7749C38.5722 23.8415 38.5722 21.8748 37.2776 20.6528C36.4549 19.8762 35.3135 19.5931 33.5209 19.49" stroke="white" stroke-width="2" stroke-linecap="round" stroke-linejoin="round"/>
<path d="M30.7148 26.2251H32.9598" stroke="white" stroke-width="2" stroke-linecap="round"/>
<path d="M30.7148 30.7151H32.9598" stroke="white" stroke-width="2" stroke-linecap="round"/>
<path d="M22.8574 30.7151H25.1024" stroke="white" stroke-width="2" stroke-linecap="round"/>
<path d="M22.8574 26.2251H25.1024" stroke="white" stroke-width="2" stroke-linecap="round"/>
<path d="M17.2441 39.6951H25.6629M39.6941 39.6951H31.2754" stroke="white" stroke-width="2" stroke-linecap="round" stroke-linejoin="round"/>
<path d="M25.6641 39.695V36.8888C25.6641 35.8397 25.6641 35.3151 25.8896 34.9244C26.0374 34.6685 26.25 34.4559 26.5059 34.3081C26.8967 34.0825 27.4212 34.0825 28.4703 34.0825C29.5194 34.0825 30.0439 34.0825 30.4347 34.3081C30.6906 34.4559 30.9032 34.6685 31.0509 34.9244C31.2766 35.3151 31.2766 35.8397 31.2766 36.8888V39.695" stroke="white" stroke-width="2" stroke-linecap="round"/>
</svg>
