<svg width="55" height="55" viewBox="0 0 55 55" fill="none" xmlns="http://www.w3.org/2000/svg">
<rect width="55" height="55" rx="7.85714" fill="#14B8A6"/>
<path d="M31.8949 38.0844V35.6709C31.8949 34.3906 31.3864 33.1628 30.4811 32.2576C29.5758 31.3523 28.348 30.8438 27.0678 30.8438H19.8271C18.5469 30.8438 17.3191 31.3523 16.4138 32.2576C15.5086 33.1628 15 34.3906 15 35.6709V38.0844" stroke="white" stroke-width="2.06877" stroke-linecap="round" stroke-linejoin="round"/>
<path d="M32.2383 16C33.2734 16.2684 34.1901 16.8728 34.8445 17.7185C35.499 18.5642 35.854 19.6033 35.854 20.6727C35.854 21.742 35.499 22.7811 34.8445 23.6268C34.1901 24.4725 33.2734 25.077 32.2383 25.3453" stroke="white" stroke-width="2.06877" stroke-linecap="round" stroke-linejoin="round"/>
<path d="M39.134 38.0853V35.6717C39.1332 34.6022 38.7772 33.5632 38.122 32.7179C37.4667 31.8726 36.5492 31.2688 35.5137 31.0015" stroke="white" stroke-width="2.06877" stroke-linecap="round" stroke-linejoin="round"/>
<path d="M23.4463 26.0166C26.1122 26.0166 28.2734 23.8554 28.2734 21.1894C28.2734 18.5235 26.1122 16.3623 23.4463 16.3623C20.7803 16.3623 18.6191 18.5235 18.6191 21.1894C18.6191 23.8554 20.7803 26.0166 23.4463 26.0166Z" stroke="white" stroke-width="2.06877" stroke-linecap="round" stroke-linejoin="round"/>
</svg>
