<svg width="55" height="55" viewBox="0 0 55 55" fill="none" xmlns="http://www.w3.org/2000/svg">
<rect width="55" height="55" rx="7.85714" fill="#14B8A6"/>
<path d="M33.0751 28.3156C33.1666 28.035 33.3453 27.791 33.5853 27.6191C33.8252 27.4472 34.1138 27.3565 34.4089 27.3602C34.704 27.3639 34.9902 27.4619 35.2257 27.6397C35.4613 27.8176 35.6338 28.066 35.7182 28.3489L36.7387 30.3595C36.838 30.5549 36.9822 30.724 37.1596 30.8528C37.3371 30.9816 37.5425 31.0664 37.7591 31.1003L40.0215 31.4548C40.3128 31.4559 40.5963 31.5489 40.8317 31.7206C41.0671 31.8922 41.2424 32.1338 41.3326 32.4108C41.4228 32.6879 41.4233 32.9863 41.3341 33.2636C41.2448 33.541 41.0704 33.7831 40.8356 33.9556L39.2129 35.5729C39.0575 35.7276 38.9411 35.917 38.8732 36.1255C38.8053 36.334 38.7879 36.5556 38.8224 36.7721L39.181 39.0057C39.2797 39.2856 39.2858 39.5898 39.1984 39.8735C39.1111 40.1572 38.9349 40.4053 38.6958 40.5812C38.4568 40.7571 38.1675 40.8516 37.8707 40.8506C37.574 40.8497 37.2853 40.7534 37.0474 40.5759L35.019 39.5374C34.8236 39.4373 34.6072 39.385 34.3877 39.385C34.1681 39.385 33.9517 39.4373 33.7563 39.5374L31.7279 40.5759C31.49 40.7519 31.202 40.847 30.9061 40.8474C30.6102 40.8477 30.322 40.7532 30.0837 40.5778C29.8454 40.4023 29.6696 40.1552 29.582 39.8725C29.4944 39.5898 29.4997 39.2865 29.5971 39.007L29.9543 36.7735C29.9888 36.557 29.9714 36.3353 29.9035 36.1269C29.8356 35.9184 29.7192 35.729 29.5638 35.5743L27.9633 33.9777C27.7205 33.8095 27.5379 33.5681 27.4421 33.2887C27.3463 33.0093 27.3423 32.7066 27.4308 32.4247C27.5192 32.1429 27.6955 31.8968 27.9338 31.7223C28.1721 31.5478 28.4599 31.454 28.7552 31.4548L31.0162 31.1003C31.2328 31.0664 31.4383 30.9816 31.6157 30.8528C31.7931 30.724 31.9374 30.5549 32.0367 30.3595L33.0751 28.3156Z" stroke="white" stroke-width="2" stroke-linecap="round" stroke-linejoin="round"/>
<path d="M21.9228 31.6165H20.5383C19.0694 31.6165 17.6607 32.2 16.6221 33.2388C15.5835 34.2775 15 35.6863 15 37.1553V39.9248" stroke="white" stroke-width="2" stroke-linecap="round" stroke-linejoin="round"/>
<path d="M24.6965 26.0777C27.7552 26.0777 30.2347 23.5979 30.2347 20.5389C30.2347 17.4798 27.7552 15 24.6965 15C21.6378 15 19.1582 17.4798 19.1582 20.5389C19.1582 23.5979 21.6378 26.0777 24.6965 26.0777Z" stroke="white" stroke-width="2" stroke-linecap="round" stroke-linejoin="round"/>
</svg>
