<svg width="55" height="55" viewBox="0 0 55 55" fill="none" xmlns="http://www.w3.org/2000/svg">
<rect width="55" height="55" rx="7.85714" fill="#14B8A6"/>
<path d="M27.5726 17.5749L23.6204 21.4742C23.0955 22.0037 22.8006 22.7218 22.8006 23.4705C22.8006 24.2192 23.0955 24.9372 23.6204 25.4667C24.1455 25.9961 24.8575 26.2934 25.6 26.2934C26.3425 26.2934 27.0545 25.9961 27.5796 25.4667L29.9736 23.0526C30.2869 22.7365 30.6589 22.4858 31.0684 22.3147C31.4778 22.1436 31.9167 22.0556 32.3599 22.0556C32.8031 22.0556 33.242 22.1436 33.6514 22.3147C34.0609 22.4858 34.4329 22.7365 34.7462 23.0526L37.3796 25.7096C37.9045 26.2391 38.1994 26.9571 38.1994 27.7058C38.1994 28.4545 37.9045 29.1726 37.3796 29.7021C39.6 27.463 41 25.5882 41 22.7646C41 21.1936 40.5274 19.6595 39.6446 18.3651C38.7619 17.0706 37.5105 16.0766 36.0557 15.5143C34.601 14.9521 33.0114 14.848 31.4968 15.2159C29.9822 15.5838 28.6139 16.4064 27.5726 17.5749ZM37.3796 29.7021C37.1035 29.9805 36.7756 30.2015 36.4148 30.3522C36.054 30.5029 35.6673 30.5805 35.2768 30.5805C34.8863 30.5805 34.4996 30.5029 34.1388 30.3522C33.778 30.2015 33.4501 29.9805 33.174 29.7021C33.473 29.9747 33.7139 30.3057 33.882 30.6751C34.0502 31.0445 34.1421 31.4445 34.1522 31.8509C34.1624 32.2572 34.0905 32.6614 33.9409 33.0388C33.7913 33.4163 33.5673 33.7591 33.2822 34.0465C32.9972 34.3339 32.6572 34.5599 32.2829 34.7107C31.9086 34.8616 31.5078 34.9341 31.1049 34.9239C30.702 34.9136 30.3053 34.8209 29.939 34.6514C29.5726 34.4818 29.2443 34.2389 28.974 33.9374C29.2504 34.215 29.4698 34.5448 29.6196 34.908C29.7695 35.2711 29.8469 35.6605 29.8474 36.0539C29.8479 36.4472 29.7716 36.8368 29.6227 37.2004C29.4737 37.564 29.2552 37.8944 28.9796 38.1727C28.7136 38.441 28.3966 38.6526 28.0477 38.7946C27.6988 38.9367 27.3251 39.0064 26.9488 38.9995C26.5726 38.9927 26.2016 38.9094 25.858 38.7548C25.5144 38.6001 25.2052 38.3771 24.949 38.0993L17.2 30.5294C15.1 28.4117 13 26.0117 13 22.7646C13.0003 21.1937 13.4731 19.6599 14.356 18.3656C15.2388 17.0713 16.4902 16.0775 17.9449 15.5155C19.3996 14.9534 20.9891 14.8495 22.5036 15.2174C24.018 15.5854 25.3862 16.4079 26.4274 17.5763C26.5831 17.7222 26.7878 17.8032 27.0003 17.8029C27.2128 17.8027 27.4173 17.7212 27.5726 17.5749" stroke="white" stroke-width="2.05714" stroke-linecap="round" stroke-linejoin="round"/>
</svg>
