<svg width="55" height="55" viewBox="0 0 55 55" fill="none" xmlns="http://www.w3.org/2000/svg">
<rect width="55" height="55" rx="7.85714" fill="#14B8A6"/>
<g clip-path="url(#clip0_666_751)">
<path d="M30.8438 27.6133L32.7376 38.2711C32.7588 38.3966 32.7412 38.5256 32.6872 38.6408C32.6331 38.756 32.5451 38.852 32.435 38.9159C32.3249 38.9797 32.198 39.0085 32.0711 38.9983C31.9442 38.988 31.8235 38.9393 31.7251 38.8586L27.25 35.4998C27.0339 35.3384 26.7715 35.2512 26.5018 35.2512C26.2321 35.2512 25.9697 35.3384 25.7537 35.4998L21.271 38.8574C21.1727 38.9379 21.0521 38.9866 20.9254 38.9968C20.7987 39.007 20.6719 38.9784 20.5618 38.9147C20.4518 38.851 20.3638 38.7553 20.3096 38.6403C20.2555 38.5253 20.2376 38.3965 20.2585 38.2711L22.1511 27.6133" stroke="white" stroke-width="2.14292" stroke-linecap="round" stroke-linejoin="round"/>
<path d="M26.5002 29.0005C30.6425 29.0005 34.0005 25.6425 34.0005 21.5002C34.0005 17.358 30.6425 14 26.5002 14C22.358 14 19 17.358 19 21.5002C19 25.6425 22.358 29.0005 26.5002 29.0005Z" stroke="white" stroke-width="2.14292" stroke-linecap="round" stroke-linejoin="round"/>
</g>
<defs>
<clipPath id="clip0_666_751">
<rect width="28" height="28" fill="white" transform="translate(13 13)"/>
</clipPath>
</defs>
</svg>
