<svg width="45" height="45" viewBox="0 0 45 45" fill="none" xmlns="http://www.w3.org/2000/svg">
<rect width="45" height="45" rx="7.85714" fill="#14B8A6"/>
<path d="M13.5556 33.994V29.9119C13.5556 28.4498 13.1727 27.6897 12.42 26.419C11.5178 24.8958 11 23.1181 11 21.2196C11 15.5755 15.5766 11 21.2222 11C26.8678 11 31.4445 15.5755 31.4445 21.2196C31.4445 21.8862 31.4445 22.2196 31.4723 22.4065C31.5388 22.8533 31.7473 23.2376 31.9523 23.6354L34 27.6068L32.3907 28.4112C31.9242 28.6443 31.6911 28.7609 31.5286 28.9761C31.3662 29.1912 31.3205 29.434 31.229 29.9197L31.22 29.9671C31.0105 31.0797 30.7792 32.3079 30.1278 33.0828C29.8978 33.3563 29.6131 33.5786 29.2918 33.7354C28.7614 33.994 28.1094 33.994 26.8053 33.994C26.2018 33.994 25.5967 34.0079 24.9934 33.9933C23.5634 33.9585 22.5 32.7562 22.5 31.3601" stroke="white" stroke-width="2" stroke-linecap="round" stroke-linejoin="round"/>
<path d="M25.2454 20.8112C24.7552 20.8112 24.308 20.6257 23.9694 20.3205M25.2454 20.8112C25.2454 22.129 24.4819 23.3806 23.0122 23.3806C21.5425 23.3806 20.7792 24.6322 20.7792 25.9499M25.2454 20.8112C27.7171 20.8112 27.7171 16.9571 25.2454 16.9571C25.0208 16.9571 24.8053 16.9961 24.6051 17.0676C24.7258 14.1949 20.5843 13.4149 19.6463 16.1062M17.8789 22.5618C17.5325 23.057 16.9602 23.3806 16.3128 23.3806C14.0042 23.3806 13.7618 19.8875 16.0284 19.5476C14.6779 17.248 17.5167 14.6688 19.6463 16.1062C20.3295 16.5672 20.7792 17.3517 20.7792 18.2418" stroke="white" stroke-width="2" stroke-linecap="round" stroke-linejoin="round"/>
</svg>
