<svg width="55" height="55" viewBox="0 0 55 55" fill="none" xmlns="http://www.w3.org/2000/svg">
<rect width="55" height="55" rx="7.85714" fill="#14B8A6"/>
<path d="M30.5 29.3335C30.7333 28.1668 31.3167 27.3502 32.25 26.4168C33.4167 25.3668 34 23.8502 34 22.3335C34 20.477 33.2625 18.6965 31.9497 17.3837C30.637 16.071 28.8565 15.3335 27 15.3335C25.1435 15.3335 23.363 16.071 22.0503 17.3837C20.7375 18.6965 20 20.477 20 22.3335C20 23.5002 20.2333 24.9002 21.75 26.4168C22.5667 27.2335 23.2667 28.1668 23.5 29.3335" stroke="white" stroke-width="2" stroke-linecap="round" stroke-linejoin="round"/>
<path d="M23.5 34H30.5" stroke="white" stroke-width="2" stroke-linecap="round" stroke-linejoin="round"/>
<path d="M24.666 38.6665H29.3327" stroke="white" stroke-width="2" stroke-linecap="round" stroke-linejoin="round"/>
</svg>
