<svg width="55" height="55" viewBox="0 0 55 55" fill="none" xmlns="http://www.w3.org/2000/svg">
<rect width="55" height="55" rx="7.85714" fill="#14B8A6"/>
<path d="M16.5059 22.908C16.3094 22.0226 16.3395 21.102 16.5936 20.2314C16.8478 19.3608 17.3176 18.5685 17.9595 17.9279C18.6015 17.2873 19.3948 16.8192 20.2659 16.5669C21.137 16.3146 22.0577 16.2863 22.9426 16.4847C23.4297 15.723 24.1007 15.0961 24.8937 14.6618C25.6868 14.2276 26.5764 14 27.4806 14C28.3848 14 29.2744 14.2276 30.0674 14.6618C30.8605 15.0961 31.5315 15.723 32.0186 16.4847C32.9049 16.2855 33.8271 16.3136 34.6996 16.5665C35.5721 16.8194 36.3665 17.2888 37.0088 17.9312C37.6512 18.5735 38.1206 19.3679 38.3735 20.2404C38.6264 21.1129 38.6545 22.0351 38.4553 22.9214C39.217 23.4085 39.8439 24.0795 40.2782 24.8726C40.7124 25.6656 40.94 26.5552 40.94 27.4594C40.94 28.3636 40.7124 29.2532 40.2782 30.0463C39.8439 30.8393 39.217 31.5103 38.4553 31.9974C38.6537 32.8823 38.6254 33.803 38.3731 34.6741C38.1208 35.5452 37.6527 36.3385 37.0121 36.9805C36.3715 37.6224 35.5792 38.0922 34.7086 38.3464C33.838 38.6005 32.9174 38.6306 32.032 38.4341C31.5456 39.1988 30.8741 39.8284 30.0797 40.2645C29.2852 40.7007 28.3936 40.9294 27.4873 40.9294C26.581 40.9294 25.6894 40.7007 24.895 40.2645C24.1005 39.8284 23.429 39.1988 22.9426 38.4341C22.0577 38.6325 21.137 38.6042 20.2659 38.352C19.3948 38.0997 18.6015 37.6315 17.9595 36.9909C17.3176 36.3503 16.8478 35.558 16.5936 34.6874C16.3395 33.8169 16.3094 32.8962 16.5059 32.0109C15.7383 31.5251 15.106 30.853 14.6679 30.0573C14.2298 29.2615 14 28.3678 14 27.4594C14 26.551 14.2298 25.6573 14.6679 24.8616C15.106 24.0658 15.7383 23.3937 16.5059 22.908Z" stroke="white" stroke-width="2" stroke-linecap="round" stroke-linejoin="round"/>
<path d="M22.0957 27.4592H32.8684" stroke="white" stroke-width="2" stroke-linecap="round" stroke-linejoin="round"/>
</svg>
