<svg width="62" height="62" viewBox="0 0 62 62" fill="none" xmlns="http://www.w3.org/2000/svg">
<rect width="62" height="62" rx="8" fill="#14B8A6" fill-opacity="0.8"/>
<path d="M42.3253 25.624L29.6053 16.2907C28.6119 15.5632 27.4363 15.1251 26.209 15.0249C24.9817 14.9247 23.7507 15.1664 22.6524 15.7232C21.5541 16.2799 20.6314 17.13 19.9867 18.1791C19.3421 19.2282 19.0005 20.4353 19 21.6667V40.3334C19.0002 41.5653 19.3418 42.773 19.9868 43.8226C20.6318 44.8722 21.555 45.7225 22.6539 46.2792C23.7528 46.836 24.9845 47.0773 26.2123 46.9765C27.4401 46.8756 28.6159 46.4366 29.6093 45.708L42.3293 36.3747C43.1737 35.7555 43.8603 34.9461 44.3336 34.0121C44.8069 33.0781 45.0535 32.0458 45.0535 30.9987C45.0535 29.9516 44.8069 28.9193 44.3336 27.9853C43.8603 27.0513 43.1737 26.2419 42.3293 25.6227L42.3253 25.624ZM40.7467 34.224L28.0267 43.5574C27.4307 43.9929 26.7258 44.255 25.9901 44.3146C25.2544 44.3743 24.5165 44.2293 23.8581 43.8955C23.1997 43.5618 22.6465 43.0524 22.2597 42.4237C21.873 41.795 21.6677 41.0715 21.6667 40.3334V21.6667C21.6593 20.9272 21.8607 20.2005 22.2477 19.5703C22.6347 18.9401 23.1917 18.4319 23.8547 18.104C24.4185 17.8172 25.0421 17.6674 25.6747 17.6667C26.5225 17.6699 27.347 17.9452 28.0267 18.452L40.7467 27.7854C41.2527 28.157 41.6641 28.6424 41.9477 29.2025C42.2312 29.7626 42.379 30.3816 42.379 31.0094C42.379 31.6371 42.2312 32.2561 41.9477 32.8162C41.6641 33.3763 41.2527 33.8618 40.7467 34.2334V34.224Z" fill="white"/>
</svg>
