<svg width="45" height="45" viewBox="0 0 45 45" fill="none" xmlns="http://www.w3.org/2000/svg">
<rect width="45" height="45" rx="7.85714" fill="#14B8A6"/>
<circle cx="22.5" cy="22.5" r="11.5" stroke="white" stroke-width="2" stroke-linecap="round" stroke-linejoin="round"/>
<path d="M25.4052 26.0438C30.0065 22.5156 29.2782 18.6052 27.1478 17.3465C25.4773 16.3595 24.0194 16.7573 23.1435 17.3908C22.7844 17.6506 22.6049 17.7805 22.4992 17.7805C22.3936 17.7805 22.214 17.6506 21.8549 17.3908C20.9791 16.7573 19.5211 16.3595 17.8507 17.3465C15.7279 18.6007 15.1955 22.6309 19.7544 26.1585C20.6247 26.8319 21.546 27.4376 22.4992 27.987C24.5448 29.166 27.5786 30.55 30.5492 30.55M14.4492 30.55C16.2302 30.55 18.034 30.0525 19.6338 29.4" stroke="white" stroke-width="2" stroke-linecap="round"/>
</svg>
