<svg width="45" height="45" viewBox="0 0 45 45" fill="none" xmlns="http://www.w3.org/2000/svg">
<rect width="45" height="45" rx="7.85714" fill="#14B8A6"/>
<path d="M22.5007 13.1945V15.1111M22.5007 15.1111V17.0278M22.5007 15.1111H24.4173M22.5007 15.1111H20.584" stroke="white" stroke-width="2" stroke-linecap="round"/>
<path d="M18.1372 10.7485C17.3887 11.497 17.3887 12.7017 17.3887 15.1111C17.3887 17.5205 17.3887 18.7252 18.1372 19.4737C18.8857 20.2222 20.0904 20.2222 22.4998 20.2222C24.9092 20.2222 26.1139 20.2222 26.8624 19.4737C27.6109 18.7252 27.6109 17.5205 27.6109 15.1111C27.6109 12.7017 27.6109 11.497 26.8624 10.7485C26.1139 10 24.9092 10 22.4998 10C20.0904 10 18.8857 10 18.1372 10.7485Z" stroke="white" stroke-width="2" stroke-linecap="round" stroke-linejoin="round"/>
<path d="M12.2773 35.5556V22.7404C12.2773 18.5116 12.2773 16.3972 13.5872 15.0835C14.4197 14.2486 15.5747 13.9443 17.3885 13.8334M32.7218 35.5556V22.7404C32.7218 18.5116 32.7218 16.3972 31.4119 15.0835C30.5794 14.2486 29.4244 13.9443 27.6107 13.8334" stroke="white" stroke-width="2" stroke-linecap="round" stroke-linejoin="round"/>
<path d="M11 35.5555H34" stroke="white" stroke-width="2" stroke-linecap="round" stroke-linejoin="round"/>
<path d="M19.3047 35.5555V32.3611C19.3047 31.1668 19.3047 30.5697 19.5615 30.125C19.7297 29.8336 19.9717 29.5916 20.263 29.4234C20.7078 29.1666 21.3049 29.1666 22.4991 29.1666C23.6934 29.1666 24.2905 29.1666 24.7352 29.4234C25.0266 29.5916 25.2686 29.8336 25.4368 30.125C25.6936 30.5697 25.6936 31.1668 25.6936 32.3611V35.5555" stroke="white" stroke-width="2" stroke-linecap="round"/>
<path d="M17.4001 24.0555H17.3887M22.4998 24.0555H22.4883M27.6124 24.0555H27.6009" stroke="white" stroke-width="2" stroke-linecap="round" stroke-linejoin="round"/>
</svg>
