<svg width="45" height="45" viewBox="0 0 45 45" fill="none" xmlns="http://www.w3.org/2000/svg">
<rect width="45" height="45" rx="7.85714" fill="#14B8A6"/>
<path d="M19.5872 20.4131H18.2937V19.1196C18.2937 18.6531 17.9154 18.2748 17.4489 18.2748C16.9824 18.2748 16.6041 18.6531 16.6041 19.1196V20.4131H15.3097C14.8431 20.4131 14.4648 20.7914 14.4648 21.2579C14.4648 21.7244 14.8431 22.1027 15.3097 22.1027H16.6032V23.3962C16.6032 23.8627 16.9814 24.241 17.448 24.241C17.9145 24.241 18.2928 23.8627 18.2928 23.3962V22.1027H19.5863C20.0528 22.1027 20.4311 21.7244 20.4311 21.2579C20.4311 20.7914 20.0537 20.4131 19.5872 20.4131Z" fill="white"/>
<path d="M35.8641 20.506L31.7536 15.0269C31.242 14.3455 30.4282 13.939 29.5768 13.939H28.1378V13.4697C28.1378 12.1076 27.0292 11 25.6672 11H23.4115C22.0495 11 20.9409 12.1076 20.9409 13.4697V13.939H11.7222C10.2212 13.939 9 15.1602 9 16.6612V28.573C9 30.074 10.2222 31.2952 11.7222 31.2952H13.4137C13.7948 32.8525 15.1925 34.0146 16.8661 34.0146C18.5398 34.0146 19.9366 32.8515 20.3186 31.2952H25.6559C26.037 32.8525 27.4347 34.0146 29.1084 34.0146C30.7821 34.0146 32.1788 32.8515 32.5609 31.2952H34.2505C35.7514 31.2952 36.9727 30.073 36.9727 28.573V23.8299C36.9727 22.6396 36.5784 21.4588 35.8641 20.506ZM30.4019 16.0416L34.4373 21.4203H26.4125C25.8437 21.4203 25.38 20.9566 25.38 20.3877V15.6286H29.5759C29.8988 15.6286 30.2076 15.7826 30.4019 16.0416ZM22.6306 13.4697C22.6306 13.0398 22.9807 12.6896 23.4106 12.6896H25.6663C26.0962 12.6896 26.4463 13.0398 26.4463 13.4697V13.939H22.6306V13.4697ZM16.8652 32.3249C15.8317 32.3249 14.9916 31.4839 14.9916 30.4513C14.9916 29.4188 15.8326 28.5777 16.8652 28.5777C17.8977 28.5777 18.7388 29.4188 18.7388 30.4513C18.7388 31.4839 17.8987 32.3249 16.8652 32.3249ZM29.1075 32.3249C28.074 32.3249 27.2339 31.4839 27.2339 30.4513C27.2339 29.4188 28.0749 28.5777 29.1075 28.5777C30.14 28.5777 30.9811 29.4188 30.9811 30.4513C30.9811 31.4839 30.14 32.3249 29.1075 32.3249ZM35.283 28.573C35.283 29.1419 34.8203 29.6056 34.2505 29.6056H32.558C32.176 28.0492 30.7792 26.8872 29.1065 26.8872C27.4338 26.8872 26.037 28.0492 25.655 29.6056H20.3167C19.9347 28.0492 18.5379 26.8872 16.8652 26.8872C15.1925 26.8872 13.7957 28.0492 13.4137 29.6056H11.7222C11.1533 29.6056 10.6896 29.1428 10.6896 28.573V16.6612C10.6896 16.0923 11.1524 15.6286 11.7222 15.6286H23.6903V20.3877C23.6903 21.8887 24.9125 23.1099 26.4125 23.1099H35.2061C35.2521 23.3474 35.2821 23.5877 35.2821 23.8308L35.283 28.573Z" fill="white"/>
</svg>
