<svg width="55" height="55" viewBox="0 0 55 55" fill="none" xmlns="http://www.w3.org/2000/svg">
<rect width="55" height="55" rx="7.85714" fill="#14B8A6"/>
<path d="M38.5964 28.8481C38.5964 35.597 33.8722 38.9714 28.2571 40.9286C27.9631 41.0282 27.6437 41.0235 27.3528 40.9151C21.7242 38.9714 17 35.597 17 28.8481V19.3997C17 19.0417 17.1422 18.6984 17.3953 18.4453C17.6485 18.1921 17.9918 18.0499 18.3498 18.0499C21.0493 18.0499 24.4238 16.4302 26.7724 14.3785C27.0583 14.1342 27.4221 14 27.7982 14C28.1743 14 28.5381 14.1342 28.824 14.3785C31.1861 16.4437 34.5471 18.0499 37.2466 18.0499C37.6046 18.0499 37.9479 18.1921 38.201 18.4453C38.4542 18.6984 38.5964 19.0417 38.5964 19.3997V28.8481Z" stroke="white" stroke-width="2" stroke-linecap="round" stroke-linejoin="round"/>
<path d="M23.75 27.4984L26.4495 30.1979L31.8486 24.7988" stroke="white" stroke-width="2" stroke-linecap="round" stroke-linejoin="round"/>
</svg>
