<?xml version="1.0" encoding="UTF-8"?>
<svg id="Layer_2" data-name="Layer 2" xmlns="http://www.w3.org/2000/svg" viewBox="0 0 34.68 32.46">
  <defs>
    <style>
      .cls-1 {
        fill: #14b8a6;
      }
    </style>
  </defs>
  <g id="Layer_1-2" data-name="Layer 1">
    <path class="cls-1" d="M31.96,9.02c-.84-.74-1.79-1.17-2.78-1.32.12-.91-.03-1.85-.45-2.78C27.32,1.75,22.88-.58,19.59.13c-.88.19-1.63.58-2.24,1.14-.61-.56-1.37-.95-2.25-1.14-3.28-.71-7.73,1.62-9.15,4.8-.42.93-.56,1.86-.45,2.78-.98.14-1.92.58-2.76,1.32C.13,11.27-.79,15.77.75,18.63c.27.53.85,1.36,1.86,1.95-.43.75-.68,1.62-.72,2.57-.14,3.53,2.7,7.49,6.33,8.83.9.32,1.78.48,2.63.48,2.3,0,4.47-1.13,6.17-3.31.03-.03.06-.07.09-.1l.56-.85,1.95-2.95,3.87-5.85c1.58-2.49,1.49-5.1-.23-6.82-1.55-1.55-4.6-2.1-5.93-.26-1.62-1.62-4.39-1.29-5.94.26-1.78,1.78-1.85,4.48-.16,6.92l1.47,1.99,1.16,1.58.51.68,1.95-2.95-.36-.49-1.17-1.58-.85-1.16c-.27-.4-1.1-1.75-.19-2.65.32-.32.74-.51,1.2-.51s.87.18,1.19.5c.59.61.82,1.68,1.27,1.66.45-.02.5-1.1,1.16-1.71.05-.05.1-.09.16-.13.02-.01.04-.03.06-.04.66-.41,1.56-.33,2.12.23.78.78.19,2.02-.22,2.66l-3.19,4.81-1.95,2.95-1.19,1.81c-1.46,1.82-3.14,2.38-5,1.71-2.27-.84-4.25-3.5-4.16-5.56.01-.43.07-1.76,2.3-2.38.74-.22,1.21-.88,1.21-1.6,0-.14-.01-.3-.06-.45-.25-.88-1.16-1.4-2.05-1.16-2.25.64-2.78-.33-2.95-.65-.79-1.47-.16-4.32,1.24-5.54.56-.49,1.52-1.01,3.21.22.74.53,1.78.38,2.33-.36.22-.29.32-.64.32-.98,0-.51-.23-1.01-.68-1.33-1.78-1.32-1.3-2.37-1.11-2.78.8-1.78,3.63-3.3,5.42-2.91.35.07,1.29.27,1.29,2.25,0,.91.74,1.66,1.66,1.66s1.66-.75,1.66-1.66c0-1.98.93-2.18,1.29-2.25,1.79-.39,4.63,1.13,5.42,2.91.17.4.65,1.46-1.13,2.78-.43.32-.68.82-.68,1.33,0,.35.12.69.33.98.53.75,1.58.91,2.31.36,1.69-1.23,2.65-.71,3.22-.22,1.39,1.21,2.02,4.06,1.23,5.54-.17.32-.69,1.29-2.95.65-.88-.25-1.81.27-2.05,1.16-.04.14-.06.3-.06.45,0,.72.48,1.39,1.21,1.6,1.62.45,2.49,1.33,2.57,2.65.12,1.92-1.45,4.26-3.43,5.1-.68.29-1.37.39-2.05.3-.59-.07-1.19-.27-1.76-.64-.52-.3-1.03-.72-1.52-1.26l-.16-.22-1.89,2.88c.75.75,1.56,1.34,2.41,1.76.58.3,1.17.52,1.76.65,1.49.35,3.02.22,4.51-.42,3.32-1.42,5.65-5.02,5.43-8.38-.06-1.06-.38-1.99-.9-2.82.95-.58,1.52-1.37,1.79-1.89,1.53-2.86.61-7.36-1.98-9.61Z"/>
  </g>
</svg>