<svg width="55" height="55" viewBox="0 0 55 55" fill="none" xmlns="http://www.w3.org/2000/svg">
<rect width="55" height="55" rx="7.85714" fill="black"/>
<path d="M25.9408 30.1536H28.737C29.4787 30.1536 30.1899 29.859 30.7143 29.3346C31.2387 28.8102 31.5333 28.099 31.5333 27.3574C31.5333 26.6158 31.2387 25.9046 30.7143 25.3802C30.1899 24.8558 29.4787 24.5612 28.737 24.5612H24.5427C23.7038 24.5612 23.0048 24.8408 22.5853 25.4L14.7559 32.9499" stroke="white" stroke-width="2" stroke-linecap="round" stroke-linejoin="round"/>
<path d="M30.7649 29.3008L37.8254 22.738C38.7985 21.7649 39.9226 20.1571 39.9226 18.6191C39.9228 17.8409 39.6868 17.0809 39.2458 16.4396C38.8048 15.7984 38.1796 15.306 37.4528 15.0277C36.726 14.7494 35.9318 14.6982 35.1753 14.8809C34.4188 15.0635 33.7355 15.4715 33.2158 16.0508C33.1797 16.09 33.1358 16.1213 33.087 16.1428C33.0381 16.1642 32.9853 16.1752 32.932 16.1752C32.8787 16.1752 32.8259 16.1642 32.777 16.1428C32.7282 16.1213 32.6843 16.09 32.6482 16.0508C32.1285 15.4715 31.4452 15.0635 30.6887 14.8809C29.9322 14.6982 29.138 14.7494 28.4112 15.0277C27.6844 15.306 27.0592 15.7984 26.6182 16.4396C26.1772 17.0809 25.9412 17.8409 25.9414 18.6191C25.9414 20.2969 27.0627 21.7621 28.0386 22.738L32.932 27.2875" stroke="white" stroke-width="2" stroke-linecap="round" stroke-linejoin="round"/>
<path d="M13.3574 31.5518L21.7461 39.9405" stroke="white" stroke-width="2" stroke-linecap="round" stroke-linejoin="round"/>
<path d="M20.3477 38.5424L22.5846 36.585C23.0041 36.0258 23.7031 35.7461 24.542 35.7461H30.1345C31.6724 35.7461 33.0705 35.1869 34.0492 34.0684L40.4806 27.9167C41.0201 27.4068 41.335 26.7035 41.3559 25.9615C41.3769 25.2195 41.1023 24.4995 40.5924 23.96C40.0826 23.4205 39.3793 23.1056 38.6372 23.0846C37.8952 23.0636 37.1753 23.3383 36.6357 23.8481" stroke="white" stroke-width="2" stroke-linecap="round" stroke-linejoin="round"/>
</svg>
